<svg width="32" height="32" viewBox="0 0 32 32" fill="none" xmlns="http://www.w3.org/2000/svg">
<g clip-path="url(#clip0_7_256)">
<path d="M26.7254 16.9682C26.7806 21.8016 31.9428 23.41 32 23.4306C31.9564 23.544 31.1752 25.7227 29.2803 27.9732C27.6423 29.9189 25.9423 31.8574 23.2642 31.8976C20.6328 31.937 19.7866 30.6294 16.7781 30.6294C13.7705 30.6294 12.8304 31.8574 10.3394 31.937C7.75438 32.0165 5.78592 29.833 4.1343 27.8945C0.759412 23.9291 -1.8197 16.6894 1.6434 11.8025C3.36379 9.37558 6.43826 7.83878 9.77533 7.79938C12.3137 7.76002 14.7097 9.18727 16.2615 9.18727C17.8122 9.18727 20.7238 7.47088 23.7847 7.72296C25.0661 7.7663 28.6629 8.14361 30.9726 10.8911C30.7865 10.9849 26.6808 12.9273 26.7254 16.9682M21.7799 5.09955C23.1523 3.74947 24.076 1.87003 23.824 0C21.8458 0.0646146 19.4537 1.07132 18.0348 2.42066C16.7631 3.61556 15.6495 5.52808 15.95 7.3611C18.1549 7.49974 20.4074 6.45049 21.7799 5.09955" fill="#989CA5"/>
</g>
<defs>
<clipPath id="clip0_7_256">
<rect width="32" height="32" fill="white"/>
</clipPath>
</defs>
</svg>
