<svg width="24" height="32" viewBox="0 0 24 32" fill="none" xmlns="http://www.w3.org/2000/svg">
<path d="M0.766308 17.0432H5.97429V31.4839C5.97429 31.769 6.31729 32 6.7406 32H15.5709C15.9942 32 16.3372 31.769 16.3372 31.4839V17.1112H22.3242C22.7135 17.1112 23.041 16.9145 23.0855 16.654L23.9948 11.3377C24.0198 11.1914 23.951 11.045 23.8057 10.9352C23.6602 10.8254 23.4521 10.7625 23.2337 10.7625H16.3375V7.42999C16.3375 6.42539 17.1406 5.91597 18.7247 5.91597C18.9505 5.91597 23.2337 5.91597 23.2337 5.91597C23.657 5.91597 24 5.68485 24 5.39985V0.519948C24 0.234839 23.657 0.00381935 23.2337 0.00381935H17.0197C16.9759 0.00237419 16.8785 0 16.7351 0C15.6569 0 11.9092 0.142555 8.94879 1.97688C5.66869 4.0096 6.12464 6.44346 6.23361 6.86545V10.7624H0.766308C0.342999 10.7624 0 10.9934 0 11.2786V16.527C0 16.8121 0.342999 17.0432 0.766308 17.0432Z" fill="#FF7900"/>
</svg>
