<svg width="32" height="32" viewBox="0 0 32 32" fill="none" xmlns="http://www.w3.org/2000/svg">
<path d="M17.7779 3.20001H5.33344C4.3515 3.20001 3.55566 3.91626 3.55566 4.80001V12.8C3.55566 13.6838 4.3515 14.4 5.33344 14.4H17.7779C18.7598 14.4 19.5557 13.6838 19.5557 12.8V4.80001C19.5557 3.91626 18.7598 3.20001 17.7779 3.20001ZM17.7779 12.8H5.33344V4.80001H17.7779V12.8Z" fill="#FF7A00"/>
<path d="M26.1683 2.48106C25.7327 2.29225 25.1958 2.44963 24.979 2.848C24.7638 3.24319 24.9458 3.72319 25.3867 3.91838C26.2406 4.29544 27.3162 4.88744 28.24 5.55094C28.2222 5.54775 28.1944 5.54188 28.1783 5.53869C27.6871 5.44644 27.2284 5.73387 27.133 6.16694C27.0376 6.60106 27.3499 7.02187 27.831 7.10775C28.8687 7.29387 30.0171 7.72212 30.2198 7.99256C30.2203 7.99525 30.2222 7.99738 30.2222 8V21.6C30.2222 22.4827 29.4251 23.2 28.4444 23.2C27.4636 23.2 26.6666 22.4827 26.6666 21.6V10.4C26.6666 8.63575 25.0713 7.2 23.111 7.2V1.6C23.111 0.71625 22.3152 0 21.3333 0H1.77778C0.795833 0 0 0.71625 0 1.6V30.4C0 31.2837 0.795833 32 1.77778 32H21.3333C22.3153 32 23.1111 31.2837 23.1111 30.4V8.8C24.0919 8.8 24.8889 9.51731 24.8889 10.4V21.6C24.8889 23.3643 26.4842 24.8 28.4444 24.8C30.4047 24.8 32 23.3643 32 21.6V8C32 5.13438 26.7656 2.744 26.1683 2.48106ZM21.3333 30.4H1.77778V1.6H21.3333V30.4Z" fill="#FF7A00"/>
</svg>
