<svg width="32" height="32" viewBox="0 0 32 32" fill="none" xmlns="http://www.w3.org/2000/svg">
<path d="M30.9684 6.07233H22.1357L22.9085 5.41402C22.9653 5.3657 23.0161 5.31161 23.0602 5.25271C24.1896 3.74635 23.8201 1.6468 22.2364 0.572436C21.4812 0.0601621 20.5299 -0.119754 19.6264 0.0794044C18.7228 0.278349 17.9513 0.837339 17.5096 1.61291L15.9999 4.26397L14.4902 1.61291C14.0484 0.837232 13.2769 0.278135 12.3733 0.0792975C11.4696 -0.119754 10.5183 0.0600552 9.76338 0.572329C8.17986 1.64669 7.81025 3.74625 8.93953 5.2526C8.98381 5.31161 9.03472 5.3657 9.09124 5.41392L9.86407 6.07222H1.03163C0.461872 6.07222 0 6.51159 0 7.05358V13.2757C0 13.8177 0.461872 14.2571 1.03163 14.2571H1.30493V31.0186C1.30493 31.5606 1.7668 32 2.33656 32H29.6634C30.2332 32 30.6951 31.5606 30.6951 31.0186V14.2571H30.9684C31.5381 14.2571 32 13.8177 32 13.2757V7.05369C32 6.51169 31.538 6.07233 30.9684 6.07233ZM19.3238 2.54777C19.4863 2.26223 19.759 2.06468 20.0917 1.99145C20.1818 1.97157 20.272 1.96184 20.3615 1.96184C20.6022 1.96184 20.8358 2.03282 21.0385 2.1703C21.3569 2.38635 21.5678 2.70727 21.6324 3.07437C21.6914 3.41004 21.6216 3.7471 21.4356 4.03403L19.0425 6.07233H17.3167L19.3238 2.54777ZM10.3674 3.07448C10.4319 2.70759 10.6428 2.38645 10.9614 2.17041C11.2393 1.98183 11.5754 1.91822 11.9082 1.99156C12.2407 2.06468 12.5135 2.26234 12.6761 2.54788L14.6832 6.07233H12.9574L10.5642 4.03403C10.3782 3.74721 10.3084 3.40993 10.3674 3.07448ZM12.1608 30.0374H3.36807V14.2572H12.1608V30.0374ZM17.7757 30.0374H14.2241V14.2572H17.7757V30.0374V30.0374ZM28.6318 30.0374H19.839V14.2572H28.6318V30.0374ZM29.9367 12.2944H2.06314V8.03505H29.9366V12.2944H29.9367Z" fill="#FF7A00"/>
</svg>
