<svg width="32" height="32" viewBox="0 0 32 32" fill="none" xmlns="http://www.w3.org/2000/svg">
<g clip-path="url(#clip0_7_285)">
<path d="M23.8981 10.9765C20.1807 8.89726 14.2142 5.55857 4.95969 0.376745C4.33575 -0.0353185 3.61787 -0.0893186 2.99762 0.120619L18.8758 15.9988L23.8981 10.9765Z" fill="#989CA5"/>
<path d="M2.99762 0.120621C2.88137 0.159996 2.76824 0.207496 2.66005 0.264871C1.97512 0.635372 1.4718 1.34831 1.4718 2.25V29.7476C1.4718 30.6492 1.97505 31.3622 2.66005 31.7326C2.76805 31.7899 2.88112 31.8376 2.99724 31.8772L18.8758 15.9988L2.99762 0.120621Z" fill="#989CA5"/>
<path d="M18.8758 15.9988L2.99725 31.8772C3.61769 32.0887 4.33557 32.0389 4.9597 31.6208C13.9346 26.5952 19.8338 23.296 23.5942 21.1992C23.6989 21.1404 23.8015 21.0829 23.9029 21.0259L18.8758 15.9988Z" fill="#989CA5"/>
<path d="M1.4718 15.9988V29.7476C1.4718 30.6492 1.97505 31.3622 2.66005 31.7326C2.76805 31.7899 2.88112 31.8376 2.99724 31.8772L18.8758 15.9988H1.4718Z" fill="#8A8F9B"/>
<path d="M4.95973 0.376837C4.21879 -0.112414 3.34503 -0.0984768 2.6601 0.265024L18.6348 16.2398L23.8981 10.9765C20.1808 8.89735 14.2142 5.55866 4.95973 0.376837Z" fill="#757980"/>
<path d="M18.6349 15.7579L2.6601 31.7326C3.3451 32.0961 4.21879 32.1171 4.95973 31.6208C13.9346 26.5952 19.8339 23.296 23.5943 21.1992C23.6989 21.1404 23.8015 21.0829 23.9029 21.0259L18.6349 15.7579Z" fill="#989CA5"/>
<path d="M30.5282 15.9988C30.5282 15.2369 30.1438 14.468 29.3818 14.0417C29.3818 14.0417 27.9569 13.2466 23.5892 10.8036L18.394 15.9988L23.5942 21.1991C27.914 18.7737 29.3818 17.9559 29.3818 17.9559C30.1438 17.5295 30.5282 16.7607 30.5282 15.9988Z" fill="#757980"/>
<path d="M29.3818 17.9559C30.1438 17.5295 30.5282 16.7607 30.5282 15.9988H18.394L23.5942 21.1991C27.9141 18.7737 29.3818 17.9559 29.3818 17.9559Z" fill="#757980"/>
</g>
<defs>
<clipPath id="clip0_7_285">
<rect width="32" height="32" fill="white"/>
</clipPath>
</defs>
</svg>
