<svg width="32" height="32" viewBox="0 0 32 32" fill="none" xmlns="http://www.w3.org/2000/svg">
<path d="M25.2347 0.128236C21.1024 0.0939124 16.9617 -0.0694549 12.8209 0.0337045C8.02542 0.15412 4.28434 0.446342 1.45298 4.32364C0.713191 6.17188 0.339212 8.32979 0.160571 10.5822C0.126624 11.1755 0.0924915 11.7858 0.0500109 12.4134C-0.103031 16.2389 0.152038 20.1851 0.0670771 23.3142C0.466655 25.3689 1.24893 27.2171 2.71145 28.6271C7.55795 33.2951 17.4209 31.8423 23.8827 31.5844C26.9862 30.441 29.5709 29.4953 30.9568 25.9104C32.0537 23.0906 31.875 19.4971 31.9517 16.4711C32.0962 10.2467 32.3683 1.65856 25.2347 0.128236Z" fill="#FF7900"/>
<path d="M23.2833 2.32618C31.5392 3.40073 29.1161 15.4966 28.8864 21.3597C28.7588 24.5835 28.1893 27.0766 24.8988 28.1941C20.571 29.6642 14.1941 29.1741 9.7813 28.5208C6.83085 28.0909 4.51816 27.1968 3.70194 24.102C2.40952 19.2104 2.77516 12.5907 3.33631 7.60457C3.35337 7.51004 3.37879 7.4412 3.42127 7.381C3.4977 -0.0808068 18.9894 1.76743 23.2833 2.32618Z" fill="white"/>
<path d="M26.7651 6.89399C26.7822 4.83924 24.2484 4.18596 22.8879 5.44976C22.5222 5.79356 22.3521 6.31799 22.3267 6.88536C22.4627 7.61611 22.8964 8.33822 23.4576 8.75086C24.7756 9.68792 26.748 8.44138 26.7651 6.89399Z" fill="#FF7900"/>
<path d="M22.9985 10.8915C20.0907 6.4384 13.5266 5.99988 9.9981 9.94582C7.59191 12.6366 7.4218 17.1156 9.23289 20.2965C9.33492 20.3308 9.42841 20.391 9.51356 20.4942C12.4555 23.8125 17.5229 25.0161 21.1621 22.0072C24.41 19.3164 25.3622 14.5107 22.9985 10.8915Z" fill="#FF7900"/>
</svg>
