<?xml version="1.0" encoding="utf-8"?>
<!-- Generator: Adobe Illustrator 24.3.0, SVG Export Plug-In . SVG Version: 6.00 Build 0)  -->
<svg width="136" height="32" version="1.1" id="Camada_1" xmlns="http://www.w3.org/2000/svg" xmlns:xlink="http://www.w3.org/1999/xlink" x="0px" y="0px"
	 viewBox="0 0 1080 400" style="enable-background:new 0 0 1080 400;" xml:space="preserve">
<style type="text/css">
	.st0{fill:#FF7A00;}
</style>
<g>
	<path class="st0" d="M102.75,15.3h-13.2c-16.2,0-29.4,11.8-29.4,29v16.2c0,17.2,13.2,29,29.4,29h13.2c16.7,0,29.4-11.8,29.4-29
		V44.3C132.15,27,119.35,15.3,102.75,15.3z"/>
	<path class="st0" d="M324.05,118.8c-41.2,0-67.2,21.6-80,45.6l-2-39.3h-61.3v253.2h63.8V238c0-42.2,22.6-66.7,56.4-66.7
		s47.6,21.6,47.6,60.4v146.7h63.3V215.5C411.85,158.5,386.85,118.8,324.05,118.8z"/>
	<polygon class="st0" points="23.25,177.2 65.45,177.2 65.45,378.4 129.25,378.4 129.25,125.2 23.25,125.2 	"/>
	<path class="st0" d="M740.65,118.8c-79.5,0-129.1,52.5-129.1,129.5v6.4c0,78,48.6,130,129.1,130c65.3,0,108.9-33.4,121.2-86.4
		h-63.3c-7.4,21.6-25.5,36.8-57.9,36.8c-38.3,0-60.4-23.1-63.8-68.2h186.5C867.75,179.2,825.55,118.8,740.65,118.8z M678.35,223.3
		c5.9-36.8,26.5-55,61.8-55c35.8,0,54.5,20.6,57.9,55H678.35z"/>
	<path class="st0" d="M520.25,300.8V177.2h66.7v-52h-66.7V39.3h-63.8v267.9c0,51,28,77.5,86.9,77.5c14.7,0,32.9-2.5,44.7-6.4v-49.6
		c-6.9,2.5-18.6,5.4-30.4,5.4C529.65,334.2,520.25,323.9,520.25,300.8z"/>
	<path class="st0" d="M1041.95,120.8c-36.8,0-62.8,21.6-75.1,53.5l-1.5-49.1h-61.3v253.2h63.8V252.8c0-48.6,22.1-75.6,70.7-75.6
		c6.4,0,13.7,0.5,18.2,1v-55.9C1052.75,121.3,1046.35,120.8,1041.95,120.8z"/>
</g>
</svg>
