<svg width="32" height="32" viewBox="0 0 32 32" fill="none" xmlns="http://www.w3.org/2000/svg">
<path d="M24.956 24.478C24.3389 24.4803 23.7275 24.3602 23.1571 24.1247C22.5867 23.8893 22.0685 23.5431 21.6327 23.1063L16.8321 18.3027C16.6623 18.1403 16.4364 18.0497 16.2015 18.0497C15.9666 18.0497 15.7407 18.1403 15.5709 18.3027L10.7541 23.1195C10.3185 23.557 9.80054 23.9038 9.23011 24.1399C8.65968 24.3761 8.04811 24.4968 7.43074 24.4953H6.49091L12.574 30.5783C13.4863 31.4887 14.7225 32 16.0114 32C17.3003 32 18.5365 31.4887 19.4488 30.5783L25.5441 24.4821L24.956 24.478Z" fill="#FF7A00"/>
<path d="M7.43175 7.5022C8.04913 7.50055 8.66072 7.62129 9.23116 7.85744C9.80159 8.09358 10.3196 8.44045 10.7551 8.87799L15.5719 13.6958C15.7393 13.8627 15.9661 13.9564 16.2025 13.9564C16.4389 13.9564 16.6657 13.8627 16.8331 13.6958L21.6327 8.89624C22.0679 8.45815 22.5858 8.11086 23.1563 7.87451C23.7268 7.63817 24.3385 7.51747 24.956 7.51944H25.5339L19.4387 1.42421C18.9874 0.972689 18.4515 0.614516 17.8617 0.370146C17.2719 0.125777 16.6397 0 16.0013 0C15.3628 0 14.7307 0.125777 14.1409 0.370146C13.5511 0.614516 13.0152 0.972689 12.5638 1.42421L6.49091 7.5022H7.43175Z" fill="#FF7A00"/>
<path d="M30.5758 12.5623L26.8925 8.87901C26.8094 8.91297 26.7207 8.93086 26.6309 8.93173H24.9561C24.0845 8.93392 23.249 9.28005 22.6313 9.89489L17.8318 14.6914C17.3995 15.1228 16.8138 15.3652 16.203 15.3652C15.5923 15.3652 15.0065 15.1228 14.5743 14.6914L9.7565 9.87664C9.13894 9.26143 8.30346 8.91492 7.43176 8.91247H5.37568C5.29095 8.91056 5.20721 8.89375 5.12831 8.86279L1.42169 12.5623C0.511294 13.4746 0 14.7109 0 15.9997C0 17.2886 0.511294 18.5248 1.42169 19.4372L5.12019 23.1357C5.19893 23.1042 5.28277 23.0873 5.36757 23.086H7.43176C8.30344 23.0835 9.13888 22.737 9.7565 22.1218L14.5733 17.3051C15.4442 16.4352 16.9619 16.4352 17.8318 17.3051L22.6313 22.1036C23.249 22.7184 24.0845 23.0646 24.9561 23.0668H26.6309C26.7207 23.0674 26.8095 23.0853 26.8925 23.1195L30.5758 19.4362C31.0273 18.9848 31.3855 18.4489 31.6299 17.8591C31.8742 17.2693 32 16.6372 32 15.9987C32 15.3603 31.8742 14.7281 31.6299 14.1383C31.3855 13.5485 31.0273 13.0126 30.5758 12.5613" fill="#FF7A00"/>
</svg>
