<svg width="32" height="32" viewBox="0 0 32 32" fill="none" xmlns="http://www.w3.org/2000/svg">
<path d="M16.4482 3.69917C16.4507 6.22674 16.4407 7.7076 16.4181 8.35585C16.4006 8.87325 16.3831 9.3074 16.3806 9.31335C16.3781 9.31335 15.9601 9.36093 15.4496 9.4204C14.6036 9.50961 11.1874 9.87239 7.41821 10.2768L5.92156 10.4374L5.5036 9.64639C5.27585 9.2063 5.07813 8.83162 5.06562 8.80189C5.05561 8.7781 5.02057 8.33206 4.99053 7.8087L4.93547 6.86904L4.66017 6.79767C4.51 6.76199 4.33982 6.72631 4.28225 6.72631C4.18214 6.72036 4.17463 6.73225 4.17463 6.87499C4.17463 6.98799 4.16462 7.02367 4.13709 6.99393C4.11707 6.97609 3.50389 5.82828 2.77809 4.44257L1.45664 1.92095L0.838453 2.06963C0.498077 2.15884 0.220271 2.2421 0.220271 2.26589C0.220271 2.28373 0.720823 4.29389 1.334 6.72631L2.44773 11.151L2.34261 11.1927C2.28255 11.2105 2.14489 11.264 2.03477 11.2997C1.79201 11.3889 1.57927 11.5673 1.54673 11.716C1.53172 11.7755 1.52171 12.0074 1.52171 12.2334C1.52421 12.9174 1.62933 13.292 1.90463 13.5894C1.98221 13.6786 2.04729 13.7559 2.04729 13.7619C2.04729 13.7738 1.58678 14.4696 1.02115 15.32C0.102641 16.6998 -0.0800604 17.0091 0.0275584 17.0091C0.145188 17.0091 1.22888 16.6998 1.27644 16.6522C1.30897 16.6225 1.7895 16.1645 2.34762 15.6412L3.35873 14.6837L3.69911 14.8918C4.18715 15.1952 6.0442 16.1883 6.80253 16.5571C7.02778 16.6641 7.75358 16.789 9.08005 16.9496C10.3289 17.1042 11.8606 17.2945 12.1209 17.3362C12.231 17.354 12.5013 17.3956 12.7216 17.4313C12.9418 17.461 13.2847 17.5443 13.4849 17.6038C13.6851 17.6692 13.8929 17.7287 13.9454 17.7346L14.043 17.7525L13.8003 18.4959C13.1595 20.4525 13.5074 19.7567 10.1187 25.8228C8.45436 28.8024 7.07033 31.2824 7.0453 31.3419C7.00275 31.437 7.00275 31.443 7.05531 31.6035C7.17044 31.9544 7.46076 32.0972 7.71604 31.9306C7.98384 31.7582 9.52053 29.7123 12.9218 25.0081L14.2232 23.2061L14.6862 23.4083C15.7274 23.8662 16.0202 23.9673 16.6259 24.0803C17.0588 24.1636 18.0424 24.229 18.1476 24.1814C18.2602 24.1338 18.3803 23.8543 18.4454 23.4975C18.568 22.8195 18.6031 21.7549 18.5255 21.1126C18.4754 20.7082 18.3328 20.2443 18.2076 20.0957C18.0049 19.8459 17.5194 19.8875 16.6659 20.2206C16.4131 20.3217 16.2004 20.393 16.1979 20.3811C16.1929 20.3692 16.5508 19.7805 16.9963 19.0787L17.8022 17.8L18.1651 17.7644C18.6531 17.7227 19.2838 17.4194 20.3124 16.7414C20.5277 16.6046 21.9092 16.4679 25.0852 16.2657C29.1422 16.0159 28.9169 16.0516 29.848 15.5222C30.8516 14.9454 31.5749 14.3388 31.8377 13.8451C32.0128 13.5121 32.0379 13.2028 31.9528 12.394C31.8952 11.8469 31.6474 11.4068 31.1419 10.9369C30.9642 10.7704 30.7815 10.5444 30.6288 10.2946C30.0782 9.40256 29.9781 9.26577 29.6778 8.99815C29.3149 8.67105 28.6566 8.45695 27.5179 8.29043C26.8471 8.19527 26.7971 8.19527 25.6433 8.32016C20.4501 8.88515 18.9534 9.03383 18.9384 8.99815C18.9284 8.96841 18.6581 7.31508 18.3403 5.32276C18.0224 3.3245 17.7171 1.40949 17.662 1.06455L17.5594 0.434146L17.0313 0.214099C16.7385 0.0951548 16.4882 -7.9315e-07 16.4732 -7.9315e-07C16.4557 -7.9315e-07 16.4482 1.12402 16.4482 3.69917ZM18.0775 23.7889C18.145 23.9554 18.1501 23.9554 18.2176 23.8721C18.2577 23.8246 18.2902 23.8008 18.2902 23.8127C18.2902 23.8305 18.2577 23.884 18.2151 23.9376C18.1601 24.0089 18.065 24.0268 17.7972 24.0149L17.4518 24.003L17.7847 23.9851C17.9949 23.9733 18.1125 23.9435 18.1025 23.9078C18.0925 23.8721 18.075 23.8603 18.0625 23.8781C18.0499 23.9019 18.0324 23.8662 18.0224 23.8067C18.0124 23.7473 17.9949 23.6818 17.9799 23.658C17.9598 23.6283 17.9598 23.6105 17.9799 23.6105C17.9924 23.6105 18.0374 23.6878 18.0775 23.7889ZM16.4632 23.8127C16.4832 23.8246 16.4307 23.8365 16.3456 23.8424C16.258 23.8424 16.1879 23.8305 16.1879 23.8008C16.1879 23.7592 16.3781 23.771 16.4632 23.8127ZM16.6959 23.89C16.6634 23.9019 16.6084 23.9019 16.5708 23.89C16.5308 23.8781 16.5583 23.8662 16.6259 23.8662C16.6959 23.8662 16.726 23.8781 16.6959 23.89ZM17.1089 23.9495C17.0563 23.9614 16.9662 23.9614 16.9087 23.9495C16.8486 23.9376 16.8912 23.9257 17.0013 23.9257C17.1114 23.9257 17.159 23.9376 17.1089 23.9495Z" fill="#FF7A00"/>
</svg>
