<svg width="512" height="512" viewBox="0 0 512 512" fill="none" xmlns="http://www.w3.org/2000/svg">
<g clip-path="url(#clip0_7_285)">
<path d="M382.369 175.623C322.891 142.356 227.427 88.937 79.355 6.028C69.372 -0.565004 57.886 -1.429 47.962 1.93L302.012 255.98L382.369 175.623Z" fill="#989CA5"/>
<path d="M47.962 1.92999C46.102 2.55999 44.292 3.31999 42.561 4.23799C31.602 10.166 23.549 21.573 23.549 36V475.96C23.549 490.387 31.601 501.794 42.561 507.721C44.289 508.638 46.098 509.401 47.956 510.035L302.012 255.98L47.962 1.92999Z" fill="#989CA5"/>
<path d="M302.012 255.98L47.956 510.035C57.883 513.419 69.369 512.621 79.355 505.932C222.953 425.522 317.341 372.736 377.507 339.186C379.182 338.245 380.823 337.325 382.445 336.414L302.012 255.98Z" fill="#989CA5"/>
<path d="M23.549 255.98V475.96C23.549 490.387 31.601 501.794 42.561 507.721C44.289 508.638 46.098 509.401 47.956 510.035L302.012 255.98H23.549Z" fill="#8A8F9B"/>
<path d="M79.355 6.028C67.5 -1.8 53.52 -1.577 42.561 4.239L298.156 259.835L382.368 175.623C322.891 142.356 227.427 88.937 79.355 6.028Z" fill="#757980"/>
<path d="M298.158 252.126L42.561 507.721C53.521 513.536 67.5 513.872 79.355 505.932C222.953 425.522 317.341 372.736 377.507 339.186C379.182 338.245 380.823 337.325 382.445 336.414L298.158 252.126Z" fill="#989CA5"/>
<path d="M488.45 255.98C488.45 243.79 482.299 231.488 470.108 224.666C470.108 224.666 447.309 211.945 377.426 172.857L294.303 255.98L377.507 339.185C446.623 300.378 470.107 287.293 470.107 287.293C482.299 280.472 488.45 268.17 488.45 255.98Z" fill="#757980"/>
<path d="M470.108 287.294C482.299 280.472 488.45 268.17 488.45 255.98H294.303L377.507 339.185C446.624 300.379 470.108 287.294 470.108 287.294Z" fill="#757980"/>
</g>
<defs>
<clipPath id="clip0_7_285">
<rect width="511.999" height="511.999" fill="white"/>
</clipPath>
</defs>
</svg>
