<svg width="32" height="32" viewBox="0 0 32 32" fill="none" xmlns="http://www.w3.org/2000/svg">
<path d="M22.7176 0H9.28246C7.98748 0 6.93304 1.0544 6.93304 2.34933V29.6501C6.93304 30.9456 7.98748 32 9.28246 32H22.717C24.0125 32 25.067 30.9456 25.067 29.6507V2.34933C25.067 1.0544 24.0125 0 22.7176 0ZM7.99975 4.26667H24.0003V24.5333H7.99975V4.26667ZM9.28246 1.06667H22.717C23.4248 1.06667 24.0003 1.64213 24.0003 2.34933V3.2H7.99975V2.34933C7.99975 1.64213 8.57523 1.06667 9.28246 1.06667ZM22.7176 30.9333H9.28246C8.57523 30.9333 7.99975 30.3579 7.99975 29.6507V25.6H24.0003V29.6507C24.0003 30.3579 23.4248 30.9333 22.7176 30.9333Z" fill="#FF7A00"/>
<path d="M16 26.1333C14.8234 26.1333 13.8666 27.0901 13.8666 28.2667C13.8666 29.4432 14.8234 30.4 16 30.4C17.1766 30.4 18.1334 29.4432 18.1334 28.2667C18.1334 27.0901 17.1766 26.1333 16 26.1333ZM16 29.3333C15.4117 29.3333 14.9333 28.8549 14.9333 28.2667C14.9333 27.6784 15.4117 27.2 16 27.2C16.5883 27.2 17.0667 27.6784 17.0667 28.2667C17.0667 28.8549 16.5883 29.3333 16 29.3333Z" fill="#FF7A00"/>
<path d="M13.8666 2.66667H16C16.295 2.66667 16.5334 2.42827 16.5334 2.13334C16.5334 1.83841 16.295 1.60001 16 1.60001H13.8666C13.5717 1.60001 13.3333 1.83841 13.3333 2.13334C13.3333 2.42827 13.5717 2.66667 13.8666 2.66667Z" fill="#FF7A00"/>
<path d="M17.6001 2.66667H18.1334C18.4284 2.66667 18.6668 2.42827 18.6668 2.13334C18.6668 1.83841 18.4284 1.60001 18.1334 1.60001H17.6001C17.3051 1.60001 17.0667 1.83841 17.0667 2.13334C17.0667 2.42827 17.3051 2.66667 17.6001 2.66667Z" fill="#FF7A00"/>
<path d="M30.1936 2.4368C29.985 2.22826 29.6479 2.22826 29.4394 2.4368C29.2309 2.64533 29.2309 2.9824 29.4394 3.19093C31.432 5.18346 31.432 8.42559 29.4394 10.4187C29.2309 10.6272 29.2309 10.9643 29.4394 11.1728C29.5434 11.2768 29.6799 11.3291 29.8165 11.3291C29.953 11.3291 30.0895 11.2768 30.1936 11.1728C32.6022 8.7648 32.6022 4.84533 30.1936 2.4368Z" fill="#FF7A00"/>
<path d="M27.9476 3.65066C27.7391 3.44213 27.402 3.44213 27.1935 3.65066C26.9849 3.8592 26.9849 4.19626 27.1935 4.4048C27.8532 5.06453 28.2164 5.94346 28.2164 6.87893C28.2164 7.8144 27.8532 8.6928 27.1935 9.35253C26.9849 9.56106 26.9849 9.89813 27.1935 10.1067C27.2975 10.2107 27.434 10.2629 27.5705 10.2629C27.7071 10.2629 27.8436 10.2107 27.9476 10.1067C28.809 9.24586 29.2831 8.0992 29.2831 6.87893C29.2831 5.65866 28.8095 4.51146 27.9476 3.65066Z" fill="#FF7A00"/>
<path d="M2.56062 3.19093C2.76916 2.9824 2.76916 2.64533 2.56062 2.4368C2.35208 2.22826 2.015 2.22826 1.80646 2.4368C-0.602153 4.84533 -0.602153 8.76426 1.80646 11.1728C1.91046 11.2768 2.047 11.3291 2.18354 11.3291C2.32008 11.3291 2.45662 11.2768 2.56062 11.1728C2.76916 10.9643 2.76916 10.6272 2.56062 10.4187C0.567485 8.42613 0.567485 5.184 2.56062 3.19093Z" fill="#FF7A00"/>
<path d="M4.80656 3.50348C4.59802 3.29494 4.26094 3.29494 4.0524 3.50348C3.19104 4.36428 2.71689 5.51094 2.71689 6.73121C2.71689 7.95148 3.19104 9.09814 4.0524 9.95948C4.1564 10.0635 4.29294 10.1157 4.42948 10.1157C4.56602 10.1157 4.70255 10.0635 4.80656 9.95948C5.0151 9.75094 5.0151 9.41388 4.80656 9.20534C4.1468 8.54561 3.78359 7.66668 3.78359 6.73121C3.78359 5.79574 4.14627 4.91734 4.80656 4.25761C5.01456 4.04961 5.01456 3.71201 4.80656 3.50348Z" fill="#FF7A00"/>
</svg>
