<svg width="32" height="33" viewBox="0 0 32 33" fill="none" xmlns="http://www.w3.org/2000/svg">
<path d="M31.7131 4.60915C31.4812 4.41983 31.1751 4.42941 30.9522 4.63381C30.7264 4.84011 30.3601 5.01751 29.9436 5.16301C31.0839 3.55634 31.1075 2.48226 31.0941 2.22942C31.0787 1.94273 30.9352 1.68876 30.72 1.56635C30.5038 1.44476 30.2506 1.47357 30.0583 1.64215C28.69 2.84204 27.3277 3.1034 26.5089 3.13259C25.2378 1.67368 23.5899 0.874001 21.8376 0.874001C18.0707 0.874001 15.0059 4.62152 15.0059 9.22762C15.0059 9.60053 15.0264 9.97269 15.0665 10.3418C8.63576 10.2097 3.41633 2.78087 3.36246 2.70273C3.22596 2.50534 3.01871 2.39793 2.80439 2.42259C2.59202 2.44492 2.40164 2.59117 2.29514 2.81398C0.482334 6.60962 1.58977 9.95881 2.70171 11.9653C2.58689 11.883 2.49283 11.8072 2.42846 11.7498C2.23202 11.5736 1.96989 11.5443 1.75021 11.6748C1.53014 11.8056 1.38952 12.0735 1.3854 12.3694C1.33627 16.0091 2.74564 18.1388 4.11502 19.3456C3.96677 19.3703 3.82771 19.4557 3.72339 19.5927C3.56652 19.7982 3.51133 20.0887 3.57896 20.3562C4.52858 24.1076 6.83151 25.4364 8.35226 25.9067C5.27602 28.7079 0.817458 27.7935 0.768021 27.7823C0.472396 27.7196 0.176521 27.9077 0.0550213 28.241C-0.0661661 28.5739 0.0167713 28.9642 0.256584 29.1846C3.53558 32.2048 7.4572 32.874 10.2897 32.874C12.4317 32.874 13.9505 32.4911 14.0966 32.453C28.3851 28.3664 28.8381 12.6109 28.8087 9.92592C31.4892 6.9142 31.9107 5.7582 31.9764 5.47068C32.0504 5.14528 31.9446 4.79892 31.7131 4.60915ZM27.7049 9.01092C27.5593 9.17256 27.4824 9.40578 27.4958 9.64436C27.4981 9.68667 27.7168 13.9572 26.1399 18.7157C24.0331 25.0735 19.8797 29.1793 13.8083 30.9157C13.7432 30.9322 8.1267 32.3361 3.19627 29.506C5.30408 29.3994 8.22308 28.6829 10.277 25.9002C10.4486 25.6681 10.4894 25.3093 10.3838 25.0257C10.2783 24.7429 10.0439 24.5347 9.78689 24.5347C9.78564 24.5347 9.78432 24.5347 9.78245 24.5347C9.60995 24.5347 6.63639 24.5078 5.21164 21.042C5.78783 21.072 6.47664 21.031 7.03176 20.7224C7.28751 20.58 7.43864 20.2623 7.40708 19.9248C7.37551 19.5873 7.16826 19.3155 6.8927 19.2454C6.73295 19.2046 3.28964 18.2772 2.75877 13.7624C3.28777 14.0283 3.9472 14.2343 4.60314 14.1157C4.85508 14.0703 5.06139 13.8518 5.13277 13.5566C5.20389 13.2618 5.12608 12.9434 4.93377 12.7413C4.78483 12.5852 1.53833 9.10023 3.02496 4.59723C4.78483 6.80966 9.8037 12.3185 15.8895 11.8975C16.0837 11.884 16.2629 11.7663 16.3783 11.5769C16.4934 11.3876 16.5327 11.1463 16.4851 10.9186C16.3703 10.3668 16.312 9.798 16.312 9.2277C16.312 5.49059 18.7906 2.45035 21.8376 2.45035C23.3277 2.45035 24.7252 3.16804 25.7732 4.47149C25.8934 4.62122 26.0579 4.70698 26.2308 4.7109C26.8344 4.71784 27.8284 4.63932 28.9515 4.13516C28.6166 4.60847 28.1482 5.16263 27.4932 5.7834C27.2669 5.99814 27.1836 6.36682 27.2885 6.69048C27.3937 7.01489 27.667 7.21998 27.9489 7.18883C28.0809 7.17616 28.7209 7.10805 29.4709 6.92446C29.0411 7.47583 28.4681 8.16395 27.7049 9.01092Z" fill="#FF7900"/>
</svg>
