<svg width="32" height="24" viewBox="0 0 32 24" fill="none" xmlns="http://www.w3.org/2000/svg">
<path d="M30.7527 2.67303C29.5976 1.29992 27.465 0.73982 23.3921 0.73982H8.60759C4.4415 0.73982 2.27272 1.33605 1.12196 2.79794C0 4.22328 0 6.32341 0 9.23004V14.7701C0 20.4011 1.3312 23.2602 8.60759 23.2602H23.3922C26.9242 23.2602 28.8813 22.7659 30.1475 21.5542C31.446 20.3115 32 18.2826 32 14.7701V9.23004C32 6.16475 31.9132 4.05223 30.7527 2.67303ZM20.5441 12.7649L13.8305 16.2737C13.6804 16.3521 13.5163 16.391 13.3524 16.391C13.1668 16.391 12.9816 16.3411 12.8175 16.2418C12.5087 16.0546 12.3201 15.7198 12.3201 15.3588V8.36377C12.3201 8.0033 12.5082 7.66885 12.8164 7.4816C13.1247 7.29435 13.5082 7.28155 13.8281 7.44774L20.5417 10.9339C20.8833 11.1112 21.0978 11.4638 21.0983 11.8486C21.0987 12.2336 20.8852 12.5867 20.5441 12.7649Z" fill="#FF7900"/>
</svg>
